font.ufo
<glyph name="dollar" format="1">
  <advance width="610"/>
  <unicode hex="0024"/>
  <note>
    dollar
  </note>
  <outline>
    <contour>
      <point x="277" y="623" type="curve"/>
      <point x="277" y="411" type="line"/>
      <point x="211" y="434"/>
      <point x="160" y="463"/>
      <point x="160" y="529" type="curve" smooth="yes"/>
      <point x="160" y="582"/>
      <point x="205" y="616"/>
    </contour>
    <contour>
      <point x="338" y="77" type="curve"/>
      <point x="338" y="308" type="line"/>
      <point x="409" y="285"/>
      <point x="466" y="255"/>
      <point x="465" y="184" type="curve" smooth="yes"/>
      <point x="465" y="125"/>
      <point x="417" y="86"/>
    </contour>
    <contour>
      <point x="338" y="624" type="line"/>
      <point x="389" y="619"/>
      <point x="449" y="601"/>
      <point x="502" y="567" type="curve"/>
      <point x="536" y="638" type="line"/>
      <point x="484" y="673"/>
      <point x="411" y="698"/>
      <point x="338" y="702" type="curve"/>
      <point x="338" y="822" type="line"/>
      <point x="277" y="822" type="line"/>
      <point x="277" y="701" type="line"/>
      <point x="153" y="690"/>
      <point x="72" y="623"/>
      <point x="72" y="523" type="curve" smooth="yes"/>
      <point x="72" y="394"/>
      <point x="176" y="357"/>
      <point x="277" y="327" type="curve"/>
      <point x="277" y="76" type="line"/>
      <point x="205" y="82"/>
      <point x="127" y="117"/>
      <point x="68" y="173" type="curve"/>
      <point x="32" y="104" type="line"/>
      <point x="93" y="46"/>
      <point x="184" y="4"/>
      <point x="277" y="-2" type="curve"/>
      <point x="277" y="-133" type="line"/>
      <point x="338" y="-133" type="line"/>
      <point x="338" y="-1" type="line"/>
      <point x="467" y="11"/>
      <point x="553" y="82"/>
      <point x="553" y="188" type="curve" smooth="yes"/>
      <point x="554" y="323"/>
      <point x="443" y="359"/>
      <point x="338" y="391" type="curve"/>
    </contour>
  </outline>
</glyph>
<glyph name="hyphen" format="1">
  <advance width="364"/>
  <unicode hex="002D"/>
  <outline>
    <contour>
      <point x="64" y="331" type="line"/>
      <point x="64" y="274" type="line"/>
      <point x="299" y="274" type="line"/>
      <point x="299" y="331" type="line"/>
    </contour>
  </outline>
</glyph>
<glyph name="slash" format="1">
  <advance width="316"/>
  <unicode hex="002F"/>
  <outline>
    <contour>
      <point x="302" y="820" type="line"/>
      <point x="-11" y="-122" type="line"/>
      <point x="57" y="-122" type="line"/>
      <point x="369" y="820" type="line"/>
    </contour>
  </outline>
</glyph>
<glyph name="one" format="1">
  <advance width="371"/>
  <unicode hex="0031"/>
  <note>
    one
  </note>
  <outline>
    <contour>
      <point x="238" y="700" type="line"/>
      <point x="17" y="700" type="line"/>
      <point x="17" y="627" type="line"/>
      <point x="159" y="627" type="line"/>
      <point x="159" y="0" type="line"/>
      <point x="238" y="0" type="line"/>
    </contour>
  </outline>
</glyph>
<glyph name="three" format="1">
  <advance width="527"/>
  <unicode hex="0033"/>
  <note>
    three
  </note>
  <outline>
    <contour>
      <point x="224" y="403" type="line"/>
      <point x="441" y="647" type="line"/>
      <point x="441" y="699" type="line"/>
      <point x="38" y="699" type="line"/>
      <point x="38" y="625" type="line"/>
      <point x="341" y="625" type="line"/>
      <point x="136" y="396" type="line"/>
      <point x="136" y="346" type="line"/>
      <point x="222" y="346" type="line" smooth="yes"/>
      <point x="331" y="346"/>
      <point x="396" y="300"/>
      <point x="396" y="212" type="curve" smooth="yes"/>
      <point x="396" y="125"/>
      <point x="332" y="66"/>
      <point x="223" y="66" type="curve" smooth="yes"/>
      <point x="158" y="66"/>
      <point x="92" y="91"/>
      <point x="42" y="132" type="curve"/>
      <point x="7" y="66" type="line"/>
      <point x="65" y="25"/>
      <point x="148" y="-3"/>
      <point x="229" y="-3" type="curve" smooth="yes"/>
      <point x="379" y="-3"/>
      <point x="474" y="86"/>
      <point x="474" y="215" type="curve" smooth="yes"/>
      <point x="474" y="327"/>
      <point x="389" y="395"/>
      <point x="263" y="401" type="curve" smooth="yes"/>
    </contour>
  </outline>
</glyph>
<glyph name="five" format="1">
  <advance width="565"/>
  <unicode hex="0035"/>
  <note>
    five
  </note>
  <outline>
    <contour>
      <point x="489" y="700" type="line"/>
      <point x="83" y="700" type="line"/>
      <point x="83" y="343" type="line"/>
      <point x="133" y="354"/>
      <point x="217" y="361"/>
      <point x="263" y="361" type="curve" smooth="yes"/>
      <point x="366" y="361"/>
      <point x="431" y="308"/>
      <point x="431" y="224" type="curve" smooth="yes"/>
      <point x="431" y="129"/>
      <point x="366" y="70"/>
      <point x="261" y="70" type="curve" smooth="yes"/>
      <point x="198" y="70"/>
      <point x="124" y="96"/>
      <point x="66" y="139" type="curve"/>
      <point x="33" y="74" type="line"/>
      <point x="99" y="28"/>
      <point x="192" y="-2"/>
      <point x="269" y="-2" type="curve" smooth="yes"/>
      <point x="419" y="-2"/>
      <point x="516" y="89"/>
      <point x="516" y="229" type="curve" smooth="yes"/>
      <point x="516" y="349"/>
      <point x="422" y="435"/>
      <point x="275" y="435" type="curve" smooth="yes"/>
      <point x="243" y="435"/>
      <point x="193" y="431"/>
      <point x="157" y="424" type="curve"/>
      <point x="157" y="626" type="line"/>
      <point x="489" y="626" type="line"/>
    </contour>
  </outline>
</glyph>
<glyph name="seven" format="1">
  <advance width="554"/>
  <unicode hex="0037"/>
  <note>
    seven
  </note>
  <outline>
    <contour>
      <point x="525" y="700" type="line"/>
      <point x="39" y="700" type="line"/>
      <point x="39" y="523" type="line"/>
      <point x="111" y="523" type="line"/>
      <point x="111" y="626" type="line"/>
      <point x="437" y="626" type="line"/>
      <point x="149" y="0" type="line"/>
      <point x="234" y="0" type="line"/>
      <point x="525" y="635" type="line"/>
    </contour>
  </outline>
</glyph>
<glyph name="bracketleft" format="1">
  <advance width="334"/>
  <unicode hex="005B"/>
  <outline>
    <contour>
      <point x="106" y="742" type="line"/>
      <point x="106" y="-124" type="line"/>
      <point x="302" y="-124" type="line"/>
      <point x="302" y="-59" type="line"/>
      <point x="177" y="-59" type="line"/>
      <point x="177" y="677" type="line"/>
      <point x="302" y="677" type="line"/>
      <point x="302" y="742" type="line"/>
    </contour>
  </outline>
</glyph>
<glyph name="backslash" format="1">
  <advance width="316"/>
  <unicode hex="005C"/>
  <outline>
    <contour>
      <point x="-53" y="820" type="line"/>
      <point x="259" y="-122" type="line"/>
      <point x="327" y="-122" type="line"/>
      <point x="14" y="820" type="line"/>
    </contour>
  </outline>
</glyph>
<glyph name="underscore" format="1">
  <advance width="555"/>
  <unicode hex="005F"/>
  <outline>
    <contour>
      <point x="0" y="-153" type="line"/>
      <point x="0" y="-204" type="line"/>
      <point x="555" y="-204" type="line"/>
      <point x="555" y="-153" type="line"/>
    </contour>
  </outline>
</glyph>
<glyph name="uni0A09" format="1">
  <advance width="640"/>
  <unicode hex="0A09"/>
  <outline>
    <contour>
      <point x="647" y="680" type="move" name="abvm_bindu"/>
    </contour>
    <contour>
      <point x="740" y="666" type="move" name="abvm_candra"/>
    </contour>
    <component base="uni0A73"/>
    <component base="uni0A41" xOffset="368"/>
  </outline>
</glyph>
<glyph name="uni0A10" format="1">
  <advance width="830"/>
  <unicode hex="0A10"/>
  <outline>
    <contour>
      <point x="687" y="675" type="move" name="_abvm"/>
    </contour>
    <contour>
      <point x="819" y="680" type="move" name="abvm_bindu"/>
    </contour>
    <contour>
      <point x="889" y="690" type="move" name="abvm_candra"/>
    </contour>
    <contour>
      <point x="749" y="675" type="move" name="abvm"/>
    </contour>
    <contour>
      <point x="735.0" y="0" type="line"/>
      <point x="735.0" y="617" type="line"/>
      <point x="831.0" y="617" type="line"/>
      <point x="831.0" y="685" type="line"/>
      <point x="717.57191" y="685" type="line"/>
      <point x="709.499175267" y="907.726349474"/>
      <point x="594.6588544" y="1007.0"/>
      <point x="442.0" y="1007.0" type="curve"/>
      <point x="443.0" y="947.0" type="line"/>
      <point x="550.884749182" y="947.0"/>
      <point x="636.510408482" y="896.917047764"/>
      <point x="665.14575" y="766.20601" type="curve"/>
      <point x="618.406993985" y="835.39064887"/>
      <point x="524.122341438" y="873.0"/>
      <point x="426.0" y="873.0" type="curve" smooth="yes"/>
      <point x="373" y="873"/>
      <point x="323" y="864"/>
      <point x="284" y="848" type="curve"/>
      <point x="300" y="789.0" type="line"/>
      <point x="335" y="801"/>
      <point x="383" y="809"/>
      <point x="434" y="809" type="curve" smooth="yes"/>
      <point x="545" y="809"/>
      <point x="657" y="767"/>
      <point x="658" y="666" type="curve"/>
      <point x="658" y="403.0" type="line"/>
      <point x="489.99102" y="403.0" type="line"/>
      <point x="481.065628359" y="532.899433187"/>
      <point x="413.610717916" y="603.0"/>
      <point x="315.0" y="603.0" type="curve" smooth="yes"/>
      <point x="257.893352568" y="603.0"/>
      <point x="213.432055021" y="579.040389691"/>
      <point x="183.24498" y="536.52412" type="curve"/>
      <point x="158.875139509" y="640.314298739"/>
      <point x="88.2467109183" y="685.0"/>
      <point x="6.0" y="685.0" type="curve" smooth="yes"/>
      <point x="-8" y="685" type="line"/>
      <point x="-8" y="617" type="line"/>
      <point x="12.0" y="617" type="line" smooth="yes"/>
      <point x="93.8200133969" y="617.0"/>
      <point x="127.908652947" y="530.628942562"/>
      <point x="131.41214" y="455.36978" type="curve"/>
      <point x="102.04928266" y="384.037583032"/>
      <point x="78.47545897" y="301.923021866"/>
      <point x="69.0" y="202.0" type="curve"/>
      <point x="133" y="185.0" type="line"/>
      <point x="177.807663125" y="285.369165399"/>
      <point x="198.522606153" y="351.205431993"/>
      <point x="201.62206" y="422.19256" type="curve"/>
      <point x="225.650407267" y="500.644633405"/>
      <point x="271.780184339" y="530.0"/>
      <point x="321.0" y="530.0" type="curve" smooth="yes"/>
      <point x="389.29977975" y="530.0"/>
      <point x="416.293643584" y="471.765430019"/>
      <point x="422.04137" y="391.41339" type="curve"/>
      <point x="371.810176992" y="286.751365826"/>
      <point x="357.58023078" y="179.563538623"/>
      <point x="352.0" y="94.0" type="curve"/>
      <point x="417.0" y="84" type="line"/>
      <point x="457.576475609" y="175.512902436"/>
      <point x="483.246202708" y="255.100406065"/>
      <point x="489.50488" y="335" type="curve"/>
      <point x="658" y="335" type="line"/>
      <point x="658" y="0" type="line"/>
    </contour>
  </outline>
</glyph>
<glyph name="uni0A20" format="1">
  <advance width="648"/>
  <unicode hex="0A20"/>
  <outline>
    <contour>
      <point x="490" y="680" type="move" name="abvm_bindu"/>
    </contour>
    <contour>
      <point x="324" y="2" type="move" name="blwm"/>
    </contour>
    <contour>
      <point x="324" y="690" type="move" name="abvm_candra"/>
    </contour>
    <contour>
      <point x="324" y="30" type="move" name="blwm_caret_1"/>
    </contour>
    <contour>
      <point x="66" y="-16" type="move" name="blwm_nukta"/>
    </contour>
    <contour>
      <point x="490" y="670" type="move" name="abvm"/>
    </contour>
    <contour>
      <point x="607" y="227" type="curve" smooth="yes"/>
      <point x="607.0" y="356.056662407"/>
      <point x="503.327250121" y="443.474269535"/>
      <point x="361.0" y="456.35108" type="curve"/>
      <point x="361.0" y="617" type="line"/>
      <point x="648" y="617" type="line"/>
      <point x="648" y="685" type="line"/>
      <point x="0" y="685" type="line"/>
      <point x="0" y="617" type="line"/>
      <point x="285" y="617" type="line"/>
      <point x="285" y="456.19389" type="line"/>
      <point x="142.363462602" y="442.815484295"/>
      <point x="42.0" y="355.570807977"/>
      <point x="42.0" y="227.0" type="curve" smooth="yes"/>
      <point x="42" y="86"/>
      <point x="165" y="-6"/>
      <point x="325" y="-6" type="curve" smooth="yes"/>
      <point x="489" y="-6"/>
      <point x="607" y="86"/>
    </contour>
    <contour>
      <point x="119" y="226" type="curve" smooth="yes"/>
      <point x="119" y="322"/>
      <point x="201" y="389"/>
      <point x="323" y="389" type="curve" smooth="yes"/>
      <point x="445" y="389"/>
      <point x="529" y="322"/>
      <point x="529" y="226" type="curve" smooth="yes"/>
      <point x="529" y="131"/>
      <point x="447" y="63"/>
      <point x="324" y="63" type="curve" smooth="yes"/>
      <point x="201" y="63"/>
      <point x="119" y="131"/>
    </contour>
  </outline>
</glyph>
<glyph name="uni0A2E" format="1">
  <advance width="683"/>
  <unicode hex="0A2E"/>
  <outline>
    <contour>
      <point x="540" y="680" type="move" name="abvm_bindu"/>
    </contour>
    <contour>
      <point x="550" y="0" type="move" name="blwm"/>
    </contour>
    <contour>
      <point x="540" y="690" type="move" name="abvm_candra"/>
    </contour>
    <contour>
      <point x="347" y="30" type="move" name="blwm_caret_1"/>
    </contour>
    <contour>
      <point x="177" y="8" type="move" name="blwm_nukta"/>
    </contour>
    <contour>
      <point x="540" y="670" type="move" name="abvm"/>
    </contour>
    <contour>
      <point x="588" y="0" type="line"/>
      <point x="588" y="617" type="line"/>
      <point x="684" y="617" type="line"/>
      <point x="684" y="685" type="line"/>
      <point x="511.0" y="685" type="line"/>
      <point x="511.0" y="328" type="line"/>
      <point x="214.98574" y="328" type="line"/>
      <point x="219.434257319" y="361.632978845"/>
      <point x="222.0" y="396.845230563"/>
      <point x="222.0" y="433.0" type="curve" smooth="yes"/>
      <point x="222" y="591"/>
      <point x="152" y="685"/>
      <point x="23" y="685" type="curve" smooth="yes"/>
      <point x="0" y="685" type="line"/>
      <point x="0" y="617" type="line"/>
      <point x="32" y="617" type="line" smooth="yes"/>
      <point x="121" y="617"/>
      <point x="150" y="533"/>
      <point x="150" y="445" type="curve" smooth="yes"/>
      <point x="150.0" y="398.781317535"/>
      <point x="146.189952541" y="355.10266671"/>
      <point x="139.5819" y="319.02827" type="curve"/>
      <point x="99.1700964956" y="266.377809121"/>
      <point x="76.9493416641" y="164.735103766"/>
      <point x="67.0" y="77.0" type="curve"/>
      <point x="132" y="64" type="line"/>
      <point x="157.070531496" y="107.414822835"/>
      <point x="185.132289879" y="176.628977565"/>
      <point x="203.15319" y="260" type="curve"/>
      <point x="511.0" y="260" type="line"/>
      <point x="511.0" y="0" type="line"/>
    </contour>
  </outline>
</glyph>
<glyph name="uni0A33" format="1">
  <advance width="719"/>
  <unicode hex="0A33"/>
  <outline>
    <contour>
      <point x="586" y="680" type="move" name="abvm_bindu"/>
    </contour>
    <contour>
      <point x="436" y="-21" type="move" name="blwm"/>
    </contour>
    <contour>
      <point x="360" y="690" type="move" name="abvm_candra"/>
    </contour>
    <contour>
      <point x="361" y="6" type="move" name="blwm_caret_1"/>
    </contour>
    <contour>
      <point x="361" y="-10" type="move" name="blwm_nukta"/>
    </contour>
    <contour>
      <point x="586" y="670" type="move" name="abvm"/>
    </contour>
    <component base="uni0A32"/>
    <component base="uni0A3C" xOffset="361" yOffset="59"/>
  </outline>
</glyph>
<glyph name="uni0A40" format="1">
  <advance width="252"/>
  <unicode hex="0A40"/>
  <outline>
    <contour>
      <point x="234" y="670" type="move" name="abvm_bindu"/>
    </contour>
    <contour>
      <point x="386" y="690" type="move" name="abvm_candra"/>
    </contour>
    <contour>
      <point x="157" y="617" type="line"/>
      <point x="253.0" y="617" type="line"/>
      <point x="253.0" y="685" type="line"/>
      <point x="157" y="685" type="line"/>
      <point x="157" y="733.0" type="line" smooth="yes"/>
      <point x="157" y="846"/>
      <point x="90" y="924"/>
      <point x="-13" y="924" type="curve" smooth="yes"/>
      <point x="-105" y="924"/>
      <point x="-154" y="867"/>
      <point x="-168" y="783" type="curve"/>
      <point x="-104.0" y="756.0" type="line"/>
      <point x="-92" y="809"/>
      <point x="-70" y="857"/>
      <point x="-7" y="857" type="curve" smooth="yes"/>
      <point x="55" y="857"/>
      <point x="82" y="811"/>
      <point x="82" y="740" type="curve" smooth="yes"/>
      <point x="82" y="685" type="line"/>
      <point x="-22.0" y="685" type="line"/>
      <point x="-22.0" y="617" type="line"/>
      <point x="80" y="617" type="line"/>
      <point x="80" y="0" type="line"/>
      <point x="157" y="0" type="line"/>
    </contour>
  </outline>
</glyph>
<glyph name="uni0A4C" format="1">
  <advance width="0"/>
  <unicode hex="0A4C"/>
  <outline>
    <contour>
      <point x="0" y="675" type="move" name="_abvm"/>
    </contour>
    <contour>
      <point x="268" y="680" type="move" name="abvm_bindu"/>
    </contour>
    <contour>
      <point x="326" y="690" type="move" name="abvm_candra"/>
    </contour>
    <contour>
      <point x="335" y="670" type="move" name="abvm"/>
    </contour>
    <contour>
      <point x="-21" y="876" type="curve" smooth="yes"/>
      <point x="68" y="876"/>
      <point x="69" y="783"/>
      <point x="69" y="760" type="curve"/>
      <point x="134" y="760.0" type="line"/>
      <point x="134" y="803"/>
      <point x="121" y="933"/>
      <point x="-23" y="933" type="curve" smooth="yes"/>
      <point x="-142" y="933"/>
      <point x="-163" y="865"/>
      <point x="-249" y="865" type="curve" smooth="yes"/>
      <point x="-292" y="865"/>
      <point x="-322" y="879"/>
      <point x="-356" y="922" type="curve"/>
      <point x="-402.0" y="877.0" type="line"/>
      <point x="-362" y="826"/>
      <point x="-312" y="798"/>
      <point x="-251" y="798" type="curve" smooth="yes"/>
      <point x="-215.454489569" y="798.0"/>
      <point x="-191.254543571" y="808.543352806"/>
      <point x="-170.95134" y="822.49321" type="curve"/>
      <point x="-177.426921753" y="798.53277354"/>
      <point x="-179.0" y="775.677802019"/>
      <point x="-179.0" y="760.0" type="curve"/>
      <point x="-114.0" y="760.0" type="line"/>
      <point x="-114" y="779"/>
      <point x="-112" y="876"/>
    </contour>
  </outline>
</glyph>
<glyph name="uni0A69" format="1">
  <advance width="631"/>
  <unicode hex="0A69"/>
  <outline>
    <contour>
      <point x="296.0" y="-6.0" type="curve" smooth="yes"/>
      <point x="465" y="-6"/>
      <point x="563" y="78"/>
      <point x="563" y="185" type="curve" smooth="yes"/>
      <point x="563.0" y="256.291907241"/>
      <point x="524.724857423" y="325.569333293"/>
      <point x="438.82026" y="357.6001" type="curve"/>
      <point x="524.922100038" y="387.266519436"/>
      <point x="559.0" y="444.648412846"/>
      <point x="559.0" y="507.0" type="curve" smooth="yes"/>
      <point x="559" y="621"/>
      <point x="447" y="692"/>
      <point x="294" y="692" type="curve" smooth="yes"/>
      <point x="215" y="692"/>
      <point x="129" y="673"/>
      <point x="67" y="635" type="curve"/>
      <point x="97.0" y="574" type="line"/>
      <point x="148" y="602"/>
      <point x="221" y="622"/>
      <point x="298" y="622" type="curve" smooth="yes"/>
      <point x="414" y="622"/>
      <point x="484" y="579"/>
      <point x="484" y="507" type="curve" smooth="yes"/>
      <point x="484.0" y="458.183464923"/>
      <point x="450.564292008" y="405.567417575"/>
      <point x="337.32312" y="394.21282" type="curve"/>
      <point x="300.718126139" y="403.018549088"/>
      <point x="254.698579432" y="405.0"/>
      <point x="210.0" y="405.0" type="curve" smooth="yes"/>
      <point x="186" y="405"/>
      <point x="155" y="403"/>
      <point x="125" y="398" type="curve"/>
      <point x="129" y="331" type="line"/>
      <point x="161" y="324"/>
      <point x="194" y="320"/>
      <point x="231" y="320" type="curve" smooth="yes"/>
      <point x="264.973154309" y="320.0"/>
      <point x="306.498912633" y="323.433001825"/>
      <point x="340.78519" y="329.16739" type="curve"/>
      <point x="452.823113795" y="315.144962319"/>
      <point x="487.0" y="251.775049359"/>
      <point x="487.0" y="196.0" type="curve" smooth="yes"/>
      <point x="487" y="109"/>
      <point x="403" y="59"/>
      <point x="293" y="59" type="curve" smooth="yes"/>
      <point x="275.66490541" y="59.0"/>
      <point x="259.044449356" y="60.4292770723"/>
      <point x="242.92504" y="62.65343" type="curve"/>
      <point x="203.509048728" y="101.815249688"/>
      <point x="152.299056406" y="116.66008088"/>
      <point x="90.0" y="122.0" type="curve"/>
      <point x="71" y="65" type="line"/>
      <point x="101" y="39"/>
      <point x="142" y="20"/>
      <point x="185" y="8" type="curve"/>
      <point x="179.0" y="-107.0" type="line"/>
      <point x="179.0" y="-118.0" type="line"/>
      <point x="256" y="-118.0" type="line"/>
      <point x="262.102" y="-3.8055" type="line"/>
      <point x="274.495343915" y="-5.48911619811"/>
      <point x="286.397160512" y="-6.0"/>
    </contour>
  </outline>
</glyph>
<glyph name="uni0A6A" format="1">
  <advance width="678"/>
  <unicode hex="0A6A"/>
  <outline>
    <contour>
      <point x="341" y="-3" type="curve" smooth="yes"/>
      <point x="496" y="-3"/>
      <point x="593" y="73"/>
      <point x="593" y="177" type="curve" smooth="yes"/>
      <point x="593.0" y="245.90043251"/>
      <point x="550.638879238" y="301.386510111"/>
      <point x="477.78127" y="330.9943" type="curve"/>
      <point x="561.191941713" y="362.504642971"/>
      <point x="612.0" y="421.453390752"/>
      <point x="612.0" y="501.0" type="curve" smooth="yes"/>
      <point x="612" y="601"/>
      <point x="530" y="674"/>
      <point x="414" y="690" type="curve"/>
      <point x="406.0" y="622" type="line"/>
      <point x="486" y="610"/>
      <point x="534" y="563"/>
      <point x="534" y="500" type="curve" smooth="yes"/>
      <point x="534" y="420"/>
      <point x="456" y="371"/>
      <point x="340" y="371" type="curve" smooth="yes"/>
      <point x="223" y="371"/>
      <point x="145" y="420"/>
      <point x="145" y="500" type="curve" smooth="yes"/>
      <point x="145" y="565"/>
      <point x="197" y="610"/>
      <point x="276" y="622" type="curve"/>
      <point x="269" y="690" type="line"/>
      <point x="148" y="676"/>
      <point x="67" y="603"/>
      <point x="67" y="505" type="curve" smooth="yes"/>
      <point x="67.0" y="426.846722734"/>
      <point x="119.36847809" y="368.608218826"/>
      <point x="205.73517" y="341.05531" type="curve"/>
      <point x="132.176221653" y="311.311789528"/>
      <point x="87.0" y="255.264003968"/>
      <point x="87.0" y="181.0" type="curve" smooth="yes"/>
      <point x="87" y="74"/>
      <point x="185" y="-3"/>
    </contour>
    <contour>
      <point x="163" y="185" type="curve" smooth="yes"/>
      <point x="163" y="254"/>
      <point x="228" y="309"/>
      <point x="339" y="309" type="curve" smooth="yes"/>
      <point x="450" y="309"/>
      <point x="516" y="255"/>
      <point x="516" y="185" type="curve" smooth="yes"/>
      <point x="516" y="116"/>
      <point x="450" y="57"/>
      <point x="338" y="57" type="curve" smooth="yes"/>
      <point x="227" y="57"/>
      <point x="163" y="115"/>
    </contour>
  </outline>
</glyph>
<glyph name="uni0A6E" format="1">
  <advance width="705"/>
  <unicode hex="0A6E"/>
  <outline>
    <contour>
      <point x="638" y="30" type="curve"/>
      <point x="620" y="95" type="line"/>
      <point x="572" y="75"/>
      <point x="518" y="63"/>
      <point x="464" y="63" type="curve" smooth="yes"/>
      <point x="331" y="63"/>
      <point x="243" y="132"/>
      <point x="243" y="265" type="curve" smooth="yes"/>
      <point x="243" y="483" type="line"/>
      <point x="622" y="483" type="line"/>
      <point x="622" y="551" type="line"/>
      <point x="227" y="551" type="line"/>
      <point x="195" y="581"/>
      <point x="147" y="591"/>
      <point x="76" y="597" type="curve"/>
      <point x="53" y="539" type="line"/>
      <point x="84" y="513"/>
      <point x="123" y="493"/>
      <point x="170" y="487" type="curve"/>
      <point x="170" y="271" type="line" smooth="yes"/>
      <point x="170" y="105"/>
      <point x="292" y="-6"/>
      <point x="470" y="-6" type="curve" smooth="yes"/>
      <point x="541" y="-6"/>
      <point x="600" y="11"/>
    </contour>
  </outline>
</glyph>
<glyph name="endash" format="1">
  <advance width="403"/>
  <unicode hex="2013"/>
  <outline>
    <contour>
      <point x="0" y="287" type="line"/>
      <point x="0" y="230" type="line"/>
      <point x="403" y="230" type="line"/>
      <point x="403" y="287" type="line"/>
    </contour>
  </outline>
</glyph>
<glyph name="quoteleft" format="1">
  <advance width="196"/>
  <unicode hex="2018"/>
  <outline>
    <contour>
      <point x="9" y="601" type="curve" smooth="yes"/>
      <point x="9" y="562"/>
      <point x="37" y="543"/>
      <point x="64" y="543" type="curve" smooth="yes"/>
      <point x="90" y="543"/>
      <point x="116" y="563"/>
      <point x="116" y="596" type="curve" smooth="yes"/>
      <point x="116" y="630"/>
      <point x="87" y="627"/>
      <point x="87" y="657" type="curve" smooth="yes"/>
      <point x="87" y="678"/>
      <point x="98" y="708"/>
      <point x="152" y="753" type="curve"/>
      <point x="130" y="781" type="line"/>
      <point x="40" y="715"/>
      <point x="9" y="643"/>
    </contour>
  </outline>
</glyph>
